Coordinates
version=1
nRows=7
nColumns=40
inDegrees=yes

Units are S.I. units (second, meters, Newtons, ...)
Angles are in degrees.

endheader
time	pelvis_tilt	pelvis_list	pelvis_rotation	pelvis_tx	pelvis_ty	pelvis_tz	hip_flexion_r	hip_adduction_r	hip_rotation_r	knee_angle_r	knee_angle_r_beta	ankle_angle_r	subtalar_angle_r	mtp_angle_r	hip_flexion_l	hip_adduction_l	hip_rotation_l	knee_angle_l	knee_angle_l_beta	ankle_angle_l	subtalar_angle_l	mtp_angle_l	lumbar_extension	lumbar_bending	lumbar_rotation	arm_flex_r	arm_add_r	arm_rot_r	elbow_flex_r	pro_sup_r	wrist_flex_r	wrist_dev_r	arm_flex_l	arm_add_l	arm_rot_l	elbow_flex_l	pro_sup_l	wrist_flex_l	wrist_dev_l
     25.07000000	     -2.68833565	     -5.00050851	      4.97435035	      1.10077307	      0.93421260	      0.48191801	      8.74799130	      4.20560290	    -19.12582169	     12.56749130	     12.56749130	      8.45696864	     -4.17061063	     -6.35647542	     32.40559383	    -11.01879021	      3.15852236	     60.50704264	     60.50704264	      9.71118040	    -18.66647142	     14.17933319	     -9.53998952	      6.32151142	      3.49406992	     20.92953302	    -16.40488168	    -10.27879500	     42.79779536	     45.67998954	      0.00000000	      0.00000000	      7.80177384	     -6.40473406	     -2.56564395	     34.52253121	     45.53086509	      0.00000000	      0.00000000
     25.08121429	     -2.76240204	     -4.86875867	      5.17052254	      1.09904579	      0.93421626	      0.48248318	      8.05348258	      4.23260695	    -19.10509977	     12.11629132	     12.11629132	      8.74045190	     -4.14539712	     -6.43047040	     33.40816806	    -10.83513826	      2.66638005	     57.46797780	     57.46797780	      9.85231868	    -18.74661901	     14.27513467	     -9.63551873	      6.11159660	      3.02726941	     23.47089911	    -16.12988647	    -10.24395296	     44.76272218	     45.61994521	      0.00000000	      0.00000000	      6.35894939	     -6.40034233	     -2.40297479	     32.68681632	     45.49712914	      0.00000000	      0.00000000
     25.09242857	     -2.80474748	     -4.84505329	      5.39957771	      1.09742056	      0.93411626	      0.48294087	      7.29948636	      4.38019306	    -19.18947914	     11.59410372	     11.59410372	      8.98323065	     -4.03463558	     -6.57215884	     34.13292618	    -10.68529805	      2.24911602	     54.05343626	     54.05343626	      9.83229199	    -18.74710034	     14.20891661	     -9.74031759	      6.08552376	      2.50172950	     25.87994571	    -15.88661138	     -9.89407527	     47.25594662	     45.52604045	      0.00000000	      0.00000000	      5.26063748	     -6.27487491	     -2.15423768	     29.77009913	     45.46797853	      0.00000000	      0.00000000
     25.10364286	     -2.84194617	     -4.73121373	      5.56498296	      1.09586800	      0.93408663	      0.48339867	      6.56353944	      4.41971805	    -19.22746464	     11.13137540	     11.13137540	      9.22058410	     -3.89616178	     -6.69082115	     34.51902470	    -10.39990931	      1.74111459	     50.21973631	     50.21973631	      9.65282901	    -18.70587587	     14.36416828	     -9.85969007	      5.91546417	      2.38657198	     27.98926306	    -15.87117065	     -9.53664249	     49.48634216	     45.44178561	      0.00000000	      0.00000000	      4.34084987	     -6.11326245	     -1.93949810	     27.22126533	     45.44569926	      0.00000000	      0.00000000
     25.11485714	     -2.96213693	     -4.73820073	      5.71362875	      1.09440540	      0.93369625	      0.48374299	      5.90370413	      4.56382579	    -19.42510725	     10.62087664	     10.62087664	      9.41890641	     -3.47343350	     -7.05839190	     34.85618935	    -10.18065201	      1.28751005	     46.20265322	     46.20265322	      9.00007585	    -18.57110258	     13.44653997	     -9.86526186	      5.92266213	      3.12983723	     28.99296094	    -16.98858919	     -8.34428317	     53.55287524	     45.26509241	      0.00000000	      0.00000000	      4.90022615	     -5.49135756	     -1.53264045	     21.79529609	     45.50297895	      0.00000000	      0.00000000
     25.12607143	     -3.04862037	     -4.70217216	      5.85118808	      1.09308725	      0.93336701	      0.48400427	      5.19833926	      4.68099394	    -19.47327638	     10.10985317	     10.10985317	      9.67852679	     -3.24918118	     -7.07642381	     34.99914577	     -9.80179017	      0.97238370	     42.07949846	     42.07949846	      8.68229188	    -18.27643218	     13.77859857	     -9.93590933	      5.86803758	      2.87854873	     31.23135276	    -16.76643542	     -8.39410880	     55.61858437	     45.21066238	      0.00000000	      0.00000000	      3.54435330	     -5.42675147	     -1.48794816	     20.53640680	     45.49834777	      0.00000000	      0.00000000
     25.13728571	     -3.24550108	     -4.61934625	      5.91501122	      1.09188039	      0.93283117	      0.48420661	      4.62767792	      4.71727028	    -19.48728386	      9.65306752	      9.65306752	      9.96280180	     -2.98278654	     -7.12791963	     35.11892303	     -9.37473022	      0.57739044	     37.89154235	     37.89154235	      8.38776801	    -17.56061355	     14.14664467	     -9.83357813	      5.72934163	      2.97802700	     33.27585136	    -16.81403344	     -8.40919731	     57.24980223	     45.16716823	      0.00000000	      0.00000000	      2.29261881	     -5.35141562	     -1.44240993	     19.60717249	     45.48175711	      0.00000000	      0.00000000
